<svg width="28" height="28" viewBox="0 0 28 28" fill="none" xmlns="http://www.w3.org/2000/svg">
<path d="M7 8.16669H16.3333V10.5H7V8.16669ZM7 12.8334H21V15.1667H7V12.8334ZM7 17.5H10.4883V19.8334H7V17.5Z" fill="white"/>
<path d="M16.3334 3.5L12.8334 0V2.33333H4.66671C4.04787 2.33333 3.45438 2.57917 3.01679 3.01675C2.57921 3.45434 2.33337 4.04783 2.33337 4.66667V23.3333C2.33337 23.9522 2.57921 24.5457 3.01679 24.9832C3.45438 25.4208 4.04787 25.6667 4.66671 25.6667H9.33337V23.3333H4.66671V4.66667H12.8334V7L16.3334 3.5ZM11.6667 24.5L15.1667 28V25.6667H23.3334C23.9522 25.6667 24.5457 25.4208 24.9833 24.9832C25.4209 24.5457 25.6667 23.9522 25.6667 23.3333V4.66667C25.6667 4.04783 25.4209 3.45434 24.9833 3.01675C24.5457 2.57917 23.9522 2.33333 23.3334 2.33333H18.6667V4.66667H23.3334V23.3333H15.1667V21L11.6667 24.5Z" fill="white"/>
</svg>
