<svg width="28" height="28" viewBox="0 0 28 28" fill="none" xmlns="http://www.w3.org/2000/svg">
<g clip-path="url(#clip0_47_124)">
<path d="M5.83337 15.75H22.1667M14 15.75V28M7.58337 12.8333V7.58331H6.21604C5.43908 7.58332 4.68421 7.84185 4.07037 8.31817C3.45654 8.79449 3.01865 9.46152 2.82571 10.2141L0.583374 18.9583V19.25H8.75004V21C8.75004 22.75 8.75004 23.9166 9.62504 25.6666C9.62504 25.6666 10.5 27.4166 11.6667 27.4166M20.4167 12.8333V7.58331H21.784C22.561 7.58332 23.3159 7.84185 23.9297 8.31817C24.5435 8.79449 24.9814 9.46152 25.1744 10.2141L27.4167 18.9583V19.25H19.25V21C19.25 22.75 19.25 23.9166 18.375 25.6666C18.375 25.6666 17.5 27.4166 16.3334 27.4166M7.40837 5.24998C7.40837 5.24998 5.54171 4.08331 5.54171 2.62498C5.54171 2.08411 5.75657 1.5654 6.13901 1.18295C6.52146 0.800504 7.04018 0.585646 7.58104 0.585646C8.12191 0.585646 8.64062 0.800504 9.02307 1.18295C9.40552 1.5654 9.62037 2.08411 9.62037 2.62498C9.62037 4.08331 7.75837 5.24998 7.75837 5.24998H7.40837ZM20.5917 5.24998C20.5917 5.24998 22.4584 4.08331 22.4584 2.62498C22.4584 2.0835 22.2433 1.56419 21.8604 1.1813C21.4775 0.798417 20.9582 0.583313 20.4167 0.583313C19.2897 0.583313 18.3797 1.49798 18.3797 2.62498C18.3797 4.08331 20.2417 5.24998 20.2417 5.24998H20.5917Z" stroke="white" stroke-width="2"/>
</g>
<defs>
<clipPath id="clip0_47_124">
<rect width="28" height="28" fill="white"/>
</clipPath>
</defs>
</svg>
