<svg width="29" height="27" viewBox="0 0 29 27" fill="none" xmlns="http://www.w3.org/2000/svg">
<g filter="url(#filter0_d_52_230)">
<path d="M15.6102 3.21019C15.8728 2.94773 16.2288 2.80029 16.6 2.80029C16.9712 2.80029 17.3273 2.94773 17.5898 3.21019L23.8898 9.51019C24.1523 9.77273 24.2997 10.1288 24.2997 10.5C24.2997 10.8712 24.1523 11.2273 23.8898 11.4898L17.5898 17.7898C17.3258 18.0448 16.9721 18.1859 16.6051 18.1827C16.238 18.1795 15.8868 18.0323 15.6273 17.7727C15.3677 17.5132 15.2205 17.162 15.2173 16.795C15.2141 16.4279 15.3552 16.0742 15.6102 15.8102L19.4 11.9H6.10001C5.72871 11.9 5.37261 11.7525 5.11006 11.4899C4.84751 11.2274 4.70001 10.8713 4.70001 10.5C4.70001 10.1287 4.84751 9.7726 5.11006 9.51004C5.37261 9.24749 5.72871 9.09999 6.10001 9.09999H19.4L15.6102 5.18979C15.3478 4.92726 15.2003 4.57122 15.2003 4.19999C15.2003 3.82876 15.3478 3.47273 15.6102 3.21019Z" fill="#4285F4"/>
</g>
<defs>
<filter id="filter0_d_52_230" x="0" y="0" width="29" height="29" filterUnits="userSpaceOnUse" color-interpolation-filters="sRGB">
<feFlood flood-opacity="0" result="BackgroundImageFix"/>
<feColorMatrix in="SourceAlpha" type="matrix" values="0 0 0 0 0 0 0 0 0 0 0 0 0 0 0 0 0 0 127 0" result="hardAlpha"/>
<feOffset dy="4"/>
<feGaussianBlur stdDeviation="2"/>
<feComposite in2="hardAlpha" operator="out"/>
<feColorMatrix type="matrix" values="0 0 0 0 0 0 0 0 0 0 0 0 0 0 0 0 0 0 0.25 0"/>
<feBlend mode="normal" in2="BackgroundImageFix" result="effect1_dropShadow_52_230"/>
<feBlend mode="normal" in="SourceGraphic" in2="effect1_dropShadow_52_230" result="shape"/>
</filter>
</defs>
</svg>
